<svg width="420" height="540" viewBox="0 0 420 540" fill="none" xmlns="http://www.w3.org/2000/svg">
<g id="essai_1">
<g id="static">
<g id="dress">
<g id="Group">
<path id="Vector" d="M112.03 539.075C99.4643 539.075 89.9323 527.606 92.3873 515.282C103.441 459.807 152.401 418 211.125 418C269.849 418 318.809 459.808 329.863 515.282C332.319 527.606 322.787 539.075 310.22 539.075H112.03Z" fill="#B49CDC"/>
</g>
<g id="Group_2">
<path id="Vector_2" d="M236.119 420.605C228.054 418.9 219.693 418 211.126 418C152.526 418 103.497 459.885 92.4024 515.271C89.9334 527.597 99.4714 539.075 112.042 539.075H140.05C140.051 480.909 181.326 432.166 236.119 420.605Z" fill="#908CD6"/>
</g>
</g>
<g id="head">
<g id="ear">
<g id="Group_3">
<path id="Vector_3" d="M354.724 295.068C374.651 295.068 390.805 278.914 390.805 258.987C390.805 239.06 374.651 222.906 354.724 222.906C334.797 222.906 318.643 239.06 318.643 258.987C318.643 278.914 334.797 295.068 354.724 295.068Z" fill="#FFBF9E"/>
</g>
<g id="Group_4">
<path id="Vector_4" d="M64.467 295.068C84.394 295.068 100.548 278.914 100.548 258.987C100.548 239.06 84.394 222.906 64.467 222.906C44.54 222.906 28.386 239.06 28.386 258.987C28.386 278.914 44.54 295.068 64.467 295.068Z" fill="#F7AB8B"/>
</g>
</g>
<g id="Group_5">
<path id="Vector_5" d="M209.597 444.683C232.074 444.683 250.295 426.462 250.295 403.985C250.295 402.016 250.147 400.082 249.877 398.187C247.474 397.336 245.042 396.559 242.575 395.862C232.09 392.884 221.028 391.281 209.597 391.281C195.482 391.281 181.925 393.719 169.317 398.183C169.046 400.079 168.898 402.014 168.898 403.984C168.899 426.461 187.12 444.683 209.597 444.683V444.683Z" fill="#FFE4C2"/>
</g>
<g id="Group_6">
<path id="Vector_6" d="M391.194 301.276C391.194 280.227 374.131 263.164 353.082 263.164V242.486L351.709 222.545C342.003 152.738 282.075 99 209.597 99C137.119 99 77.191 152.738 67.485 222.545L66.112 242.486V263.164C45.063 263.164 28 280.227 28 301.276C28 317.994 38.769 332.187 53.744 337.324C49.913 343.268 47.681 350.34 47.681 357.937C47.681 378.539 64.031 395.312 84.461 396.015C83.511 399.344 82.992 402.855 82.992 406.489C82.992 427.538 100.055 444.601 121.104 444.601C123.695 444.601 126.225 444.34 128.672 443.847C135.173 455.567 147.666 463.503 162.017 463.503C168.833 463.503 175.225 461.705 180.761 458.571C187.75 466.656 198.072 471.779 209.597 471.779C221.122 471.779 231.445 466.656 238.433 458.571C243.969 461.705 250.361 463.503 257.177 463.503C271.529 463.503 284.022 455.567 290.522 443.847C292.968 444.34 295.498 444.601 298.09 444.601C319.139 444.601 336.202 427.538 336.202 406.489C336.202 402.855 335.683 399.344 334.733 396.015C355.164 395.312 371.513 378.539 371.513 357.937C371.513 350.34 369.281 343.268 365.45 337.324C380.425 332.187 391.194 317.994 391.194 301.276V301.276Z" fill="#FCF2D0"/>
</g>
<g id="Group_7">
<path id="Vector_7" d="M180.772 458.583C175.929 451.459 173.096 442.859 173.096 433.595C173.096 426.256 174.884 419.338 178.031 413.235C153.933 412.684 134.564 392.991 134.564 368.761C134.564 344.184 154.487 324.261 179.064 324.261V102.263C120.843 114.882 75.789 162.831 67.487 222.545L66.114 242.486V263.164C45.065 263.164 28.002 280.227 28.002 301.276C28.002 317.994 38.771 332.187 53.746 337.324C49.915 343.268 47.683 350.34 47.683 357.937C47.683 378.539 64.033 395.312 84.463 396.015C83.513 399.344 82.994 402.855 82.994 406.489C82.994 427.538 100.057 444.601 121.106 444.601C123.697 444.601 126.227 444.34 128.674 443.847C135.175 455.567 147.668 463.503 162.019 463.503C168.835 463.503 175.227 461.705 180.763 458.571C180.764 458.575 180.768 458.579 180.772 458.583V458.583Z" fill="#EFDFB4"/>
</g>
<g id="Group_8">
<path id="Vector_8" d="M101.323 273.475C101.323 305.444 127.239 331.359 159.207 331.359H259.987C291.955 331.359 317.871 305.443 317.871 273.475C317.871 241.507 291.955 215.591 259.987 215.591H159.207C127.238 215.591 101.323 241.506 101.323 273.475Z" fill="#FFD4BE"/>
</g>
<g id="Group_9">
<path id="Vector_9" d="M176.327 273.475C176.327 241.506 202.243 215.591 234.211 215.591H159.207C127.239 215.591 101.323 241.507 101.323 273.475C101.323 305.444 127.239 331.359 159.207 331.359H234.211C202.243 331.359 176.327 305.443 176.327 273.475V273.475Z" fill="#FFBF9E"/>
</g>
<g id="eyes">
<g id="Group_10">
<path id="Vector_10" d="M147.148 290.975C143.006 290.975 139.648 287.617 139.648 283.475V271.475C139.648 267.333 143.006 263.975 147.148 263.975C151.29 263.975 154.648 267.333 154.648 271.475V283.475C154.648 287.617 151.29 290.975 147.148 290.975Z" fill="black"/>
</g>
<g id="Group_11">
<path id="Vector_11" d="M272.046 290.975C267.904 290.975 264.546 287.617 264.546 283.475V271.475C264.546 267.333 267.904 263.975 272.046 263.975C276.188 263.975 279.546 267.333 279.546 271.475V283.475C279.546 287.617 276.188 290.975 272.046 290.975Z" fill="black"/>
</g>
</g>
<g id="Group_12">
<g id="Group_13">
<path id="Vector_12" d="M152.079 366.356C138.36 366.356 128.66 352.839 133.15 339.875C144.117 308.211 174.202 285.474 209.597 285.474C244.992 285.474 275.077 308.21 286.044 339.875C290.534 352.839 280.834 366.356 267.115 366.356H152.079Z" fill="white"/>
</g>
</g>
</g>
</g>
<g id="hat">
<g id="moving_part_Hat">
<g id="Group_14">
<path id="Vector_13" d="M210 0C256.532 0 420 79.755 420 114.989C420 150.223 210 147.925 210 147.925V0Z" fill="#908CD6"/>
</g>
<g id="Group_15">
<path id="Vector_14" d="M363.814 113.206C352.122 87.505 336.007 62.872 315.919 39.991C313.834 37.616 311.68 35.242 309.474 32.876C269.538 14.008 229.5 0 210 0V147.926C210 147.926 311.651 149.038 373.507 137.849C370.756 129.6 367.533 121.38 363.814 113.206V113.206Z" fill="#6C6CC1"/>
</g>
</g>
<g id="Group_16">
<path id="Vector_15" d="M210 0C181.175 0 64.87 90.238 64.87 207.55H210H355.13C355.13 90.238 238.825 0 210 0Z" fill="#908CD6"/>
</g>
<g id="Group_17">
<path id="Vector_16" d="M179.703 12.9131C134.856 41.8441 64.87 116.544 64.87 207.55H195.032V176C159.685 152.007 134.76 43.1481 179.703 12.9131V12.9131Z" fill="#6C6CC1"/>
</g>
<g id="Group_18">
<path id="Vector_17" d="M400 216H20C8.954 216 0 207.046 0 196C0 184.954 8.954 176 20 176H400C411.046 176 420 184.954 420 196C420 207.046 411.046 216 400 216Z" fill="#B49CDC"/>
</g>
<g id="Group_19">
<path id="Vector_18" d="M175.032 196C175.032 184.954 183.986 176 195.032 176H20C8.954 176 0 184.954 0 196C0 207.046 8.954 216 20 216H195.032C183.986 216 175.032 207.046 175.032 196Z" fill="#908CD6"/>
</g>
</g>
</g>
</svg>
